[img]http://i.imgur.com/L25lD.jpg[/img]


Source - Vobs-DR - Thank You.



An airline pilot saves a flight from crashing, but an investigation into the malfunctions reveals something troubling.

  http://www.imdb.com/title/tt1907668/



Nadine Velazquez ... Katerina Marquez

Denzel Washington ... Whip Whitaker

Carter Cabassa ... Son on Plane

Adam C. Edwards ... Father on Plane (as Adam Ciesielski)

Tamara Tunie ... Margaret Thomason

Brian Geraghty ... Ken Evans

Kelly Reilly ... Nicole

Charlie E. Schmidt ... Tiki Pot



General

Complete name                            : Flight 2012 DVDSCR x264 AAC-BiGKATS.mp4

Format                                   : MPEG-4

Format profile                           : Base Media

Codec ID                                 : isom

File size                                : 2.23 GiB

Duration                                 : 2h 18mn

Overall bit rate mode                    : Variable

Overall bit rate                         : 2 306 Kbps

Encoded date                             : UTC 2012-12-21 00:49:42

Tagged date                              : UTC 2012-12-21 00:49:42



Video

ID                                       : 1

Format                                   : AVC

Format/Info                              : Advanced Video Codec

Format profile                           : High@L4.1

Format settings, CABAC                   : Yes

Format settings, ReFrames                : 3 frames

Codec ID                                 : avc1

Codec ID/Info                            : Advanced Video Coding

Duration                                 : 2h 18mn

Bit rate mode                            : Variable

Bit rate                                 : 1 992 Kbps

Maximum bit rate                         : 40.0 Mbps

Width                                    : 720 pixels

Height                                   : 304 pixels

Display aspect ratio                     : 2.35:1

Frame rate mode                          : Constant

Frame rate                               : 23.976 fps

Color space                              : YUV

Chroma subsampling                       : 4:2:0

Bit depth                                : 8 bits

Scan type                                : Progressive

Bits/(Pixel*Frame)                       : 0.380

Stream size                              : 1.93 GiB (86%)

Writing library                          : x264 core 129 r2230 1cffe9f



Audio

ID                                       : 2

Format                                   : AAC

Format/Info                              : Advanced Audio Codec

Format profile                           : LC

Codec ID                                 : 40

Duration                                 : 2h 18mn

Bit rate mode                            : Variable

Bit rate                                 : 310 Kbps

Maximum bit rate                         : 382 Kbps

Channel(s)                               : 6 channels

Channel positions                        : Front: L C R, Side: L R, LFE

Sampling rate                            : 48.0 KHz

Compression mode                         : Lossy

Stream size                              : 307 MiB (13%)

Language                                 : English

Encoded date                             : UTC 2012-12-21 00:50:34

Tagged date                              : UTC 2012-12-21 00:50:38


[img]http://i.imgur.com/dY9YT.png[/img]
[img]http://i.imgur.com/M7nKx.png[/img]
[img]http://i.imgur.com/xQ2S5.png[/img]
[img]http://i.imgur.com/qc4Vu.png[/img]